<mxfile host="65bd71144e">
    <diagram id="bpcNPJghLdx8xELBjL8v" name="Page-1">
        <mxGraphModel dx="1563" dy="1671" grid="1" gridSize="10" guides="1" tooltips="1" connect="1" arrows="1" fold="1" page="1" pageScale="1" pageWidth="850" pageHeight="1100" math="0" shadow="0">
            <root>
                <mxCell id="0"/>
                <mxCell id="1" parent="0"/>
                <mxCell id="2" value="UpdateÂ Activities" style="shape=table;childLayout=tableLayout;startSize=40;collapsible=0;recursiveResize=0;expand=0;fillColor=#b1ddf0;strokeColor=#000000;fontColor=#000000;" vertex="1" parent="1">
                    <mxGeometry x="-60" y="-10" width="1150" height="760" as="geometry"/>
                </mxCell>
                <mxCell id="3" value="" style="shape=tableRow;horizontal=0;swimlaneHead=0;swimlaneBody=0;top=0;left=0;bottom=0;right=0;dropTarget=0;fontStyle=0;fillColor=#b0e3e6;points=[[0,0.5],[1,0.5]];portConstraint=eastwest;startSize=40;collapsible=0;recursiveResize=0;expand=0;strokeColor=#0e8088;fontColor=#000000;" vertex="1" parent="2">
                    <mxGeometry y="40" width="1150" height="144" as="geometry"/>
                </mxCell>
                <mxCell id="4" value="Controller" style="swimlane;swimlaneHead=0;swimlaneBody=0;fontStyle=0;connectable=0;fillColor=#b0e3e6;startSize=30;collapsible=0;recursiveResize=0;expand=0;strokeColor=#000000;fontColor=#000000;swimlaneFillColor=#E6E6E6;" vertex="1" parent="3">
                    <mxGeometry x="40" width="279" height="144" as="geometry">
                        <mxRectangle width="279" height="144" as="alternateBounds"/>
                    </mxGeometry>
                </mxCell>
                <mxCell id="5" value="Service" style="swimlane;swimlaneHead=0;swimlaneBody=0;fontStyle=0;connectable=0;fillColor=#b0e3e6;startSize=30;collapsible=0;recursiveResize=0;expand=0;strokeColor=#000000;fontColor=#000000;swimlaneFillColor=#E6E6E6;" vertex="1" parent="3">
                    <mxGeometry x="319" width="281" height="144" as="geometry">
                        <mxRectangle width="281" height="144" as="alternateBounds"/>
                    </mxGeometry>
                </mxCell>
                <mxCell id="6" value="Repository" style="swimlane;swimlaneHead=0;swimlaneBody=0;fontStyle=0;connectable=0;fillColor=#b0e3e6;startSize=30;collapsible=0;recursiveResize=0;expand=0;strokeColor=#000000;fontColor=#000000;swimlaneFillColor=#E6E6E6;" vertex="1" parent="3">
                    <mxGeometry x="600" width="274" height="144" as="geometry">
                        <mxRectangle width="274" height="144" as="alternateBounds"/>
                    </mxGeometry>
                </mxCell>
                <mxCell id="8" value="Entity" style="swimlane;swimlaneHead=0;swimlaneBody=0;fontStyle=0;connectable=0;fillColor=#b0e3e6;startSize=30;collapsible=0;recursiveResize=0;expand=0;strokeColor=#000000;fontColor=#000000;swimlaneFillColor=#E6E6E6;" vertex="1" parent="3">
                    <mxGeometry x="874" width="276" height="144" as="geometry">
                        <mxRectangle width="276" height="144" as="alternateBounds"/>
                    </mxGeometry>
                </mxCell>
                <mxCell id="9" value="Company" style="swimlane;childLayout=stackLayout;horizontal=1;startSize=30;horizontalStack=0;rounded=1;fontSize=14;fontStyle=0;strokeWidth=2;resizeParent=0;resizeLast=1;shadow=0;dashed=0;align=center;fillColor=#99FFCC;strokeColor=#000000;fontColor=#000000;" vertex="1" parent="8">
                    <mxGeometry x="66" y="40" width="160" height="90" as="geometry"/>
                </mxCell>
                <mxCell id="11" value="" style="shape=tableRow;horizontal=0;swimlaneHead=0;swimlaneBody=0;top=0;left=0;bottom=0;right=0;dropTarget=0;fontStyle=0;fillColor=#b0e3e6;points=[[0,0.5],[1,0.5]];portConstraint=eastwest;startSize=40;collapsible=0;recursiveResize=0;expand=0;strokeColor=#000000;" vertex="1" parent="2">
                    <mxGeometry y="184" width="1150" height="144" as="geometry"/>
                </mxCell>
                <mxCell id="12" value="" style="swimlane;swimlaneHead=0;swimlaneBody=0;fontStyle=0;connectable=0;fillColor=none;startSize=0;collapsible=0;recursiveResize=0;expand=0;swimlaneFillColor=#E6E6E6;strokeColor=#000000;" vertex="1" parent="11">
                    <mxGeometry x="40" width="279" height="144" as="geometry">
                        <mxRectangle width="279" height="144" as="alternateBounds"/>
                    </mxGeometry>
                </mxCell>
                <mxCell id="13" value="" style="swimlane;swimlaneHead=0;swimlaneBody=0;fontStyle=0;connectable=0;fillColor=none;startSize=0;collapsible=0;recursiveResize=0;expand=0;swimlaneFillColor=#E6E6E6;strokeColor=#000000;fontColor=#000000;" vertex="1" parent="11">
                    <mxGeometry x="319" width="281" height="144" as="geometry">
                        <mxRectangle width="281" height="144" as="alternateBounds"/>
                    </mxGeometry>
                </mxCell>
                <mxCell id="14" value="" style="swimlane;swimlaneHead=0;swimlaneBody=0;fontStyle=0;connectable=0;fillColor=none;startSize=0;collapsible=0;recursiveResize=0;expand=0;swimlaneFillColor=#E6E6E6;strokeColor=#000000;" vertex="1" parent="11">
                    <mxGeometry x="600" width="274" height="144" as="geometry">
                        <mxRectangle width="274" height="144" as="alternateBounds"/>
                    </mxGeometry>
                </mxCell>
                <mxCell id="15" value="" style="swimlane;swimlaneHead=0;swimlaneBody=0;fontStyle=0;connectable=0;fillColor=none;startSize=0;collapsible=0;recursiveResize=0;expand=0;swimlaneFillColor=#E6E6E6;strokeColor=#000000;" vertex="1" parent="11">
                    <mxGeometry x="874" width="276" height="144" as="geometry">
                        <mxRectangle width="276" height="144" as="alternateBounds"/>
                    </mxGeometry>
                </mxCell>
                <mxCell id="16" value="User" style="swimlane;childLayout=stackLayout;horizontal=1;startSize=30;horizontalStack=0;rounded=1;fontSize=14;fontStyle=0;strokeWidth=2;resizeParent=0;resizeLast=1;shadow=0;dashed=0;align=center;fillColor=#99FFCC;strokeColor=#000000;fontColor=#000000;" vertex="1" parent="15">
                    <mxGeometry x="58" y="27" width="160" height="90" as="geometry"/>
                </mxCell>
                <mxCell id="17" value="" style="shape=tableRow;horizontal=0;swimlaneHead=0;swimlaneBody=0;top=0;left=0;bottom=0;right=0;dropTarget=0;fontStyle=0;fillColor=#b0e3e6;points=[[0,0.5],[1,0.5]];portConstraint=eastwest;startSize=40;collapsible=0;recursiveResize=0;expand=0;strokeColor=#0e8088;" vertex="1" parent="2">
                    <mxGeometry y="328" width="1150" height="144" as="geometry"/>
                </mxCell>
                <mxCell id="18" value="" style="swimlane;swimlaneHead=0;swimlaneBody=0;fontStyle=0;connectable=0;fillColor=none;startSize=0;collapsible=0;recursiveResize=0;expand=0;swimlaneFillColor=#E6E6E6;strokeColor=#000000;" vertex="1" parent="17">
                    <mxGeometry x="40" width="279" height="144" as="geometry">
                        <mxRectangle width="279" height="144" as="alternateBounds"/>
                    </mxGeometry>
                </mxCell>
                <mxCell id="19" value="" style="swimlane;swimlaneHead=0;swimlaneBody=0;fontStyle=0;connectable=0;fillColor=none;startSize=0;collapsible=0;recursiveResize=0;expand=0;swimlaneFillColor=#E6E6E6;strokeColor=#000000;" vertex="1" parent="17">
                    <mxGeometry x="319" width="281" height="144" as="geometry">
                        <mxRectangle width="281" height="144" as="alternateBounds"/>
                    </mxGeometry>
                </mxCell>
                <mxCell id="20" value="" style="swimlane;swimlaneHead=0;swimlaneBody=0;fontStyle=0;connectable=0;fillColor=none;startSize=0;collapsible=0;recursiveResize=0;expand=0;fontColor=#000000;swimlaneFillColor=#E6E6E6;strokeColor=#000000;" vertex="1" parent="17">
                    <mxGeometry x="600" width="274" height="144" as="geometry">
                        <mxRectangle width="274" height="144" as="alternateBounds"/>
                    </mxGeometry>
                </mxCell>
                <mxCell id="7" value="Fetch Profile" style="whiteSpace=wrap;html=1;fillColor=#999999;fontColor=#000000;" vertex="1" parent="20">
                    <mxGeometry x="115" y="52" width="80" height="40" as="geometry"/>
                </mxCell>
                <mxCell id="21" value="" style="swimlane;swimlaneHead=0;swimlaneBody=0;fontStyle=0;connectable=0;fillColor=none;startSize=0;collapsible=0;recursiveResize=0;expand=0;swimlaneFillColor=#E6E6E6;strokeColor=#000000;" vertex="1" parent="17">
                    <mxGeometry x="874" width="276" height="144" as="geometry">
                        <mxRectangle width="276" height="144" as="alternateBounds"/>
                    </mxGeometry>
                </mxCell>
                <mxCell id="22" value="Profile" style="swimlane;childLayout=stackLayout;horizontal=1;startSize=30;horizontalStack=0;rounded=1;fontSize=14;fontStyle=0;strokeWidth=2;resizeParent=0;resizeLast=1;shadow=0;dashed=0;align=center;fillColor=#99FFCC;strokeColor=#000000;fontColor=#000000;" vertex="1" parent="21">
                    <mxGeometry x="58" y="27" width="160" height="90" as="geometry"/>
                </mxCell>
                <mxCell id="10" style="edgeStyle=none;html=1;strokeColor=#000000;exitX=0;exitY=0.5;exitDx=0;exitDy=0;" edge="1" parent="17" source="22" target="7">
                    <mxGeometry relative="1" as="geometry"/>
                </mxCell>
                <mxCell id="23" value="" style="shape=tableRow;horizontal=0;swimlaneHead=0;swimlaneBody=0;top=0;left=0;bottom=0;right=0;dropTarget=0;fontStyle=0;fillColor=#b0e3e6;points=[[0,0.5],[1,0.5]];portConstraint=eastwest;startSize=40;collapsible=0;recursiveResize=0;expand=0;strokeColor=#0e8088;" vertex="1" parent="2">
                    <mxGeometry y="472" width="1150" height="144" as="geometry"/>
                </mxCell>
                <mxCell id="24" value="" style="swimlane;swimlaneHead=0;swimlaneBody=0;fontStyle=0;connectable=0;fillColor=none;startSize=0;collapsible=0;recursiveResize=0;expand=0;swimlaneFillColor=#E6E6E6;strokeColor=#000000;" vertex="1" parent="23">
                    <mxGeometry x="40" width="279" height="144" as="geometry">
                        <mxRectangle width="279" height="144" as="alternateBounds"/>
                    </mxGeometry>
                </mxCell>
                <mxCell id="26" value="" style="swimlane;swimlaneHead=0;swimlaneBody=0;fontStyle=0;connectable=0;fillColor=none;startSize=0;collapsible=0;recursiveResize=0;expand=0;swimlaneFillColor=#E6E6E6;strokeColor=#000000;" vertex="1" parent="23">
                    <mxGeometry x="319" width="281" height="144" as="geometry">
                        <mxRectangle width="281" height="144" as="alternateBounds"/>
                    </mxGeometry>
                </mxCell>
                <mxCell id="28" value="" style="swimlane;swimlaneHead=0;swimlaneBody=0;fontStyle=0;connectable=0;fillColor=none;startSize=0;collapsible=0;recursiveResize=0;expand=0;swimlaneFillColor=#E6E6E6;strokeColor=#000000;" vertex="1" parent="23">
                    <mxGeometry x="600" width="274" height="144" as="geometry">
                        <mxRectangle width="274" height="144" as="alternateBounds"/>
                    </mxGeometry>
                </mxCell>
                <mxCell id="49" value="Fetch Vacancy" style="whiteSpace=wrap;html=1;fillColor=#999999;fontColor=#000000;" vertex="1" parent="28">
                    <mxGeometry x="132.5" y="52" width="80" height="40" as="geometry"/>
                </mxCell>
                <mxCell id="30" value="" style="swimlane;swimlaneHead=0;swimlaneBody=0;fontStyle=0;connectable=0;fillColor=none;startSize=0;collapsible=0;recursiveResize=0;expand=0;swimlaneFillColor=#E6E6E6;" vertex="1" parent="23">
                    <mxGeometry x="874" width="276" height="144" as="geometry">
                        <mxRectangle width="276" height="144" as="alternateBounds"/>
                    </mxGeometry>
                </mxCell>
                <mxCell id="31" value="Vacancies" style="swimlane;childLayout=stackLayout;horizontal=1;startSize=30;horizontalStack=0;rounded=1;fontSize=14;fontStyle=0;strokeWidth=2;resizeParent=0;resizeLast=1;shadow=0;dashed=0;align=center;fillColor=#99FFCC;strokeColor=#000000;fontColor=#000000;" vertex="1" parent="30">
                    <mxGeometry x="58" y="27" width="160" height="90" as="geometry"/>
                </mxCell>
                <mxCell id="50" style="edgeStyle=none;html=1;entryX=1;entryY=0.5;entryDx=0;entryDy=0;strokeColor=#000000;" edge="1" parent="23" source="31" target="49">
                    <mxGeometry relative="1" as="geometry"/>
                </mxCell>
                <mxCell id="35" value="" style="shape=tableRow;horizontal=0;swimlaneHead=0;swimlaneBody=0;top=0;left=0;bottom=0;right=0;dropTarget=0;fontStyle=0;fillColor=#b0e3e6;points=[[0,0.5],[1,0.5]];portConstraint=eastwest;startSize=40;collapsible=0;recursiveResize=0;expand=0;strokeColor=#0e8088;" vertex="1" parent="2">
                    <mxGeometry y="616" width="1150" height="144" as="geometry"/>
                </mxCell>
                <mxCell id="36" value="" style="swimlane;swimlaneHead=0;swimlaneBody=0;fontStyle=0;connectable=0;fillColor=none;startSize=0;collapsible=0;recursiveResize=0;expand=0;swimlaneFillColor=#E6E6E6;strokeColor=#000000;" vertex="1" parent="35">
                    <mxGeometry x="40" width="279" height="144" as="geometry">
                        <mxRectangle width="279" height="144" as="alternateBounds"/>
                    </mxGeometry>
                </mxCell>
                <mxCell id="25" value="Delete&amp;nbsp;&lt;span style=&quot;&quot;&gt;Activities&lt;/span&gt;" style="whiteSpace=wrap;html=1;fillColor=#999999;fillStyle=auto;fontColor=#000000;" vertex="1" parent="36">
                    <mxGeometry x="60" y="52" width="110" height="42" as="geometry"/>
                </mxCell>
                <mxCell id="37" value="" style="swimlane;swimlaneHead=0;swimlaneBody=0;fontStyle=0;connectable=0;fillColor=none;startSize=0;collapsible=0;recursiveResize=0;expand=0;swimlaneFillColor=#E6E6E6;strokeColor=#000000;" vertex="1" parent="35">
                    <mxGeometry x="319" width="281" height="144" as="geometry">
                        <mxRectangle width="281" height="144" as="alternateBounds"/>
                    </mxGeometry>
                </mxCell>
                <mxCell id="27" value="Delete&amp;nbsp;&lt;span style=&quot;&quot;&gt;Activities&lt;/span&gt;" style="whiteSpace=wrap;html=1;fillColor=#999999;fontColor=#000000;" vertex="1" parent="37">
                    <mxGeometry x="57" y="52" width="109" height="40" as="geometry"/>
                </mxCell>
                <mxCell id="38" value="" style="swimlane;swimlaneHead=0;swimlaneBody=0;fontStyle=0;connectable=0;fillColor=none;startSize=0;collapsible=0;recursiveResize=0;expand=0;swimlaneFillColor=#E6E6E6;strokeColor=#000000;" vertex="1" parent="35">
                    <mxGeometry x="600" width="274" height="144" as="geometry">
                        <mxRectangle width="274" height="144" as="alternateBounds"/>
                    </mxGeometry>
                </mxCell>
                <mxCell id="29" value="Delete&amp;nbsp;&lt;span style=&quot;&quot;&gt;Activities&lt;/span&gt;" style="whiteSpace=wrap;html=1;fillColor=#999999;fontColor=#000000;align=center;" vertex="1" parent="38">
                    <mxGeometry x="115" y="52" width="115" height="40" as="geometry"/>
                </mxCell>
                <mxCell id="39" value="" style="swimlane;swimlaneHead=0;swimlaneBody=0;fontStyle=0;connectable=0;fillColor=none;startSize=0;collapsible=0;recursiveResize=0;expand=0;swimlaneFillColor=#E6E6E6;strokeColor=#000000;" vertex="1" parent="35">
                    <mxGeometry x="874" width="276" height="144" as="geometry">
                        <mxRectangle width="276" height="144" as="alternateBounds"/>
                    </mxGeometry>
                </mxCell>
                <mxCell id="40" value="Activities" style="swimlane;childLayout=stackLayout;horizontal=1;startSize=30;horizontalStack=0;rounded=1;fontSize=14;fontStyle=0;strokeWidth=2;resizeParent=0;resizeLast=1;shadow=0;dashed=0;align=center;fillColor=#99FFCC;strokeColor=#000000;fontColor=#000000;" vertex="1" parent="39">
                    <mxGeometry x="58" y="34" width="160" height="90" as="geometry"/>
                </mxCell>
                <mxCell id="32" style="edgeStyle=none;html=1;strokeColor=#000000;" edge="1" parent="35" source="27" target="29">
                    <mxGeometry relative="1" as="geometry"/>
                </mxCell>
                <mxCell id="33" style="edgeStyle=none;html=1;entryX=0;entryY=0.5;entryDx=0;entryDy=0;strokeColor=#000000;" edge="1" parent="35" source="25" target="27">
                    <mxGeometry relative="1" as="geometry"/>
                </mxCell>
                <mxCell id="52" style="edgeStyle=none;html=1;strokeColor=#000000;entryX=0;entryY=0.25;entryDx=0;entryDy=0;" edge="1" parent="35" source="29" target="40">
                    <mxGeometry relative="1" as="geometry">
                        <mxPoint x="940" y="72" as="targetPoint"/>
                    </mxGeometry>
                </mxCell>
                <mxCell id="41" style="edgeStyle=none;html=1;entryX=0.5;entryY=0;entryDx=0;entryDy=0;strokeColor=#000000;" edge="1" parent="2" source="7" target="27">
                    <mxGeometry relative="1" as="geometry">
                        <Array as="points">
                            <mxPoint x="430" y="400"/>
                        </Array>
                    </mxGeometry>
                </mxCell>
                <mxCell id="51" style="edgeStyle=none;html=1;entryX=0.75;entryY=0;entryDx=0;entryDy=0;strokeColor=#000000;" edge="1" parent="2" source="49" target="27">
                    <mxGeometry relative="1" as="geometry">
                        <Array as="points">
                            <mxPoint x="458" y="540"/>
                        </Array>
                    </mxGeometry>
                </mxCell>
                <mxCell id="42" value="&lt;font color=&quot;#000000&quot;&gt;Company&lt;/font&gt;" style="text;strokeColor=none;align=center;fillColor=none;html=1;verticalAlign=middle;whiteSpace=wrap;rounded=0;rotation=-90;" vertex="1" parent="1">
                    <mxGeometry x="-70" y="80" width="60" height="30" as="geometry"/>
                </mxCell>
                <mxCell id="43" value="&lt;font color=&quot;#000000&quot;&gt;User&lt;/font&gt;" style="text;strokeColor=none;align=center;fillColor=none;html=1;verticalAlign=middle;whiteSpace=wrap;rounded=0;rotation=-90;" vertex="1" parent="1">
                    <mxGeometry x="-70" y="230" width="60" height="30" as="geometry"/>
                </mxCell>
                <mxCell id="44" value="&lt;font color=&quot;#000000&quot;&gt;Profile&lt;/font&gt;" style="text;strokeColor=none;align=center;fillColor=none;html=1;verticalAlign=middle;whiteSpace=wrap;rounded=0;rotation=-90;" vertex="1" parent="1">
                    <mxGeometry x="-70" y="380" width="60" height="30" as="geometry"/>
                </mxCell>
                <mxCell id="45" value="&lt;font color=&quot;#000000&quot;&gt;Vacancies&lt;/font&gt;" style="text;strokeColor=none;align=center;fillColor=none;html=1;verticalAlign=middle;whiteSpace=wrap;rounded=0;rotation=-90;" vertex="1" parent="1">
                    <mxGeometry x="-70" y="520" width="60" height="30" as="geometry"/>
                </mxCell>
                <mxCell id="46" value="&lt;font color=&quot;#000000&quot;&gt;Activities&lt;/font&gt;" style="text;strokeColor=none;align=center;fillColor=none;html=1;verticalAlign=middle;whiteSpace=wrap;rounded=0;rotation=-90;" vertex="1" parent="1">
                    <mxGeometry x="-70" y="670" width="60" height="30" as="geometry"/>
                </mxCell>
                <mxCell id="47" style="edgeStyle=none;html=1;strokeColor=#000000;" edge="1" parent="1" source="48" target="25">
                    <mxGeometry relative="1" as="geometry"/>
                </mxCell>
                <mxCell id="48" value="&lt;font color=&quot;#ffffff&quot;&gt;Actor&lt;/font&gt;" style="shape=umlActor;verticalLabelPosition=bottom;verticalAlign=top;html=1;outlineConnect=0;strokeColor=#FFFFFF;fillColor=none;" vertex="1" parent="1">
                    <mxGeometry x="-150" y="649" width="30" height="60" as="geometry"/>
                </mxCell>
            </root>
        </mxGraphModel>
    </diagram>
</mxfile>